<?xml version="1.0" encoding="UTF-8"?><svg id="Calque_6" xmlns="http://www.w3.org/2000/svg" viewBox="0 0 890 890"><defs><style>.cls-1{fill:#6b8d6a;stroke:#6b8d6a;}.cls-1,.cls-2,.cls-3,.cls-4{stroke-linecap:round;stroke-linejoin:round;stroke-width:5px;}.cls-2{fill:#a0abb6;stroke:#a0abb6;}.cls-5{stroke-miterlimit:10;}.cls-5,.cls-3,.cls-4{stroke:#000;}.cls-3{fill:none;}</style></defs><path class="cls-1" d="m543,705.86s-50.03-62.25,22.42-59.77,12.9,88.8-22.42,59.77Z"/><g><path class="cls-2" d="m579.7,740.91s-33.16-3.4-47.42-19c-12.88,15.93-26.81,26.71-38.31,33.77-5.17,3.17-2.52,11.13,3.53,10.57,34.8-3.22,61.63-12.41,82.22-25.33t-.02-.01Z"/><path class="cls-2" d="m644.5,614.31c-25.53,3.36-52.78,3.51-73.04-5.21-.75,15.4-2.75,29.36-5.68,42.01h0c-1.43,6.25-3.1,12.17-4.97,17.79,6.96.45,16.58,3.02,29.88,9.07,24.36,11.09,37.67,1.89,44.94-11.25,8.52-15.39,8.76-36.19,8.76-36.19,0,0,.19-6.47.11-16.22Z"/><path class="cls-2" d="m590.67,449.04h0c-57.1-58.3-144.5-70.92-144.5-70.92l6.62-17.08c2.63-6.78-.78-14.41-7.6-16.96l-47.83-17.94c-6.58-2.47-13.94.72-16.65,7.2l-14.94,35.78c-25.53-7-60.68-.15-80.21,4.83-7.4,1.89-14.59-3.7-14.59-11.33v-45.23c0-7.22,5.85-13.07,13.07-13.07h113.66c7.22,0,13.07-5.85,13.07-13.07v-51.26c0-7.22-5.85-13.07-13.07-13.07h-108.95c-7.64,0-13.65-6.52-13.03-14.13l6.1-74.94c.62-7.61-5.39-14.13-13.03-14.13h-62.89c-7.39,0-13.32,6.13-13.06,13.52l2.67,77.06c.25,7.27-5.49,13.35-12.77,13.52l-81.13,1.83c-6.72.15-12.23,5.38-12.74,12.08l-4.01,52.46c-.58,7.68,5.58,14.2,13.28,14.06l85.41-1.61c6.94-.13,12.78,5.19,13.28,12.12l4.59,63.11c.66,9.09-4.29,17.66-12.52,21.57-34.25,16.28-123.38,69.5-156.99,194.06-4.88,18.11-2.35,37.48,7.29,53.57,12.43,20.75,35.78,49.14,78.07,72.65,22.97,12.77,51.24,11.21,72.63-4.06l72.11-51.51c6.99-4.99,16.77-2.61,20.68,5.04,9.79,19.16,29.49,51.44,56.05,63.72,5.17,2.39,10.14-3.61,6.77-8.21-10.67-14.58-26.63-42.45-37.44-88.78-2.77-11.92.37-24.45,8.45-33.64,22.84-25.97,71.31-86.58,98.45-160.66,0,0,39.3,6.77,78.53,29.55l54.89,48.75c8.47,12.19,13.55,26.44,17.55,42.43.51-.78,2.82-1.85,3.61-2.68,10.12-10.57,26.92-20.17,67.42-21.75,0,0-60.2-19.56-46.3-92.88Zm-364.59,144.72l-57.36,51.52c-10.44,9.16-26.15,8.83-36.19-.77l-26.58-25.4c-5.49-5.24-7.13-13.33-4.13-20.3,9.75-22.64,45.78-82.92,97.13-120.08,8.43-6.1,20.37-1.61,22.7,8.53l16.15,70.23c3.06,13.32-1.44,27.25-11.72,36.27Zm104.3-142.17l-32.69,60.38c-4.2,7.74-15.76,6.04-17.54-2.58l-9.84-47.75c-.75-3.62.68-7.32,3.65-9.51,7.72-5.71,24.52-15.42,48.53-14.46,6.96.28,11.2,7.8,7.89,13.92Z"/></g><path class="cls-1" d="m728.16,718.01s38.73,27.82,71.32-22.09c1.48-2.27,2.68-4.71,3.68-7.23,3.71-9.37,16.36-36.17,41.34-41.54,30.37-6.52,12.15-31.73-10.35-29.25s-32.85,19.8-50.4,57.38c0,0-13.99,24.65-40.63,23.69"/><path class="cls-1" d="m548.39,523.92c-69.74,4.42-54.89-48.75-54.89-48.75l18.07,4.95c61.14-20.72,58.33,17.01,56.3,28.14,0,0-.21,14.46-19.48,15.66Z"/><path class="cls-1" d="m754.67,534.79c10.27-6.62,20.37-15.42,29.88-26.98h0c10.07-13.65,16.61-29.81,18.5-47.2,6.96-64.14-52.08-99.29-52.08-99.29,0,0-10.8-37.8-25.2-36.6-14.4,1.2-22.8,38.4-22.8,38.4-18.6-3.6-37.8,7.2-37.8,7.2,0,0-21.3-38.3-32.4-27.2-11.1,11.1-5.4,44-5.4,44-24.7,18.23-36.46,61.05-36.7,61.91h0c-13.9,73.33,46.3,92.89,46.3,92.89-40.5,1.58-55.38,13.44-67.42,21.75-21.79,15.05-15.6,29.03-7.89,37.4,4.9,5.32,11.28,9,18.21,11.05,19.05,5.6,42.49,5.1,64.63,2.19,37.79-4.99,71.82-17.02,73.89-17.75m-73.89,17.75s-.35,37.02-8.87,52.41c-7.27,13.14-20.58,22.34-44.94,11.25-3.11-1.42-6.01-2.64-8.73-3.69-8.92-3.45-15.82-5.04-21.15-5.38,0,0-45.72-3.38-38.57,30.26,2.76,12.96,12.06,23.56,24.36,28.49l33.12,13.27c71.36,24.91,118,9.45,148.44-22.91,5.49-5.84,10.46-12.24,14.95-19.05,47.4-71.88,41.51-189.81,41.44-191.15m-147.58,34.11c5.36,2.29,28.33,11.32,55.79,11.03"/><g><ellipse class="cls-4" cx="698.17" cy="420.6" rx="8.4" ry="6"/><ellipse class="cls-4" cx="650.92" cy="427.13" rx="8.4" ry="6" transform="translate(-113.34 278.68) rotate(-22.28)"/><path class="cls-3" d="m703.42,477.72s-23.85-4.7-27.9-18.78c.22,16.77-19.12,30.48-19.12,30.48"/><path class="cls-5" d="m691.62,444.47c1.51,4.8-4.48,10.96-13.37,13.75-.92.29-1.83.53-2.73.72-7.83,1.71-14.75-.05-16.1-4.35-1.51-4.8,4.48-10.96,13.37-13.75,8.89-2.8,17.32-1.17,18.83,3.63Z"/></g></svg>